<svg viewBox="0 0 434 298" xmlns="http://www.w3.org/2000/svg" xmlns:xlink="http://www.w3.org/1999/xlink" width="434.000000" height="298.000000" fill="none" customFrame="#000000">
	<defs>
		<g id="pixso_custom_effect_0">
			<effect x="0.000000" y="24.000000" visibility="visible" fill="rgb(85,30,0)" fill-opacity="0.0399999991" effectType="dropShadow" showShadowBehind="1" stdDeviation="48" radius="0" />
		</g>
		<filter id="filter_0" width="370.000000" height="271.571777" x="32.000000" y="24.880859" filterUnits="userSpaceOnUse" customEffect="url(#pixso_custom_effect_0)" color-interpolation-filters="sRGB">
			<feFlood flood-opacity="0" result="BackgroundImageFix" />
			<feOffset dx="0.000000" dy="24.000000" in="SourceAlpha" />
			<feGaussianBlur stdDeviation="16" />
			<feColorMatrix type="matrix" values="0 0 0 0 0.333333 0 0 0 0 0.117647 0 0 0 0 0 0 0 0 0.04 0 " />
			<feBlend result="effect_dropShadow_1" in2="BackgroundImageFix" mode="normal" />
			<feBlend result="shape" in="SourceGraphic" in2="effect_dropShadow_1" mode="normal" />
		</filter>
		<g id="pixso_custom_effect_1">
			<effect x="0.000000" y="24.000000" visibility="visible" fill="rgb(85,30,0)" fill-opacity="0.0399999991" effectType="dropShadow" showShadowBehind="1" stdDeviation="48" radius="0" />
		</g>
		<filter id="filter_1" width="402.000000" height="271.571777" x="16.000000" y="16.900391" filterUnits="userSpaceOnUse" customEffect="url(#pixso_custom_effect_1)" color-interpolation-filters="sRGB">
			<feFlood flood-opacity="0" result="BackgroundImageFix" />
			<feOffset dx="0.000000" dy="24.000000" in="SourceAlpha" />
			<feGaussianBlur stdDeviation="16" />
			<feColorMatrix type="matrix" values="0 0 0 0 0.333333 0 0 0 0 0.117647 0 0 0 0 0 0 0 0 0.04 0 " />
			<feBlend result="effect_dropShadow_1" in2="BackgroundImageFix" mode="normal" />
			<feBlend result="shape" in="SourceGraphic" in2="effect_dropShadow_1" mode="normal" />
		</filter>
		<g id="pixso_custom_effect_2">
			<effect x="0.000000" y="24.000000" visibility="visible" fill="rgb(85,30,0)" fill-opacity="0.0399999991" effectType="dropShadow" showShadowBehind="1" stdDeviation="48" radius="0" />
		</g>
		<filter id="filter_2" width="434.000000" height="271.571777" x="0.000000" y="8.919678" filterUnits="userSpaceOnUse" customEffect="url(#pixso_custom_effect_2)" color-interpolation-filters="sRGB">
			<feFlood flood-opacity="0" result="BackgroundImageFix" />
			<feOffset dx="0.000000" dy="24.000000" in="SourceAlpha" />
			<feGaussianBlur stdDeviation="16" />
			<feColorMatrix type="matrix" values="0 0 0 0 0.333333 0 0 0 0 0.117647 0 0 0 0 0 0 0 0 0.04 0 " />
			<feBlend result="effect_dropShadow_1" in2="BackgroundImageFix" mode="normal" />
			<feBlend result="shape" in="SourceGraphic" in2="effect_dropShadow_1" mode="normal" />
		</filter>
	</defs>
	<rect id="block" width="434.000000" height="298.000000" x="0.000000" y="0.000000" fill="rgb(255,255,255)" fill-opacity="0" />
	<g id="block">
		<path id="Path" d="M293.057 13.3356C282.724 3.29555 268.353 -1.47095 254.053 0.399106C240.128 2.35444 227.759 10.2907 220.197 22.1202C215.881 28.7532 213.251 36.3371 212.536 44.2138L214.448 42.3031C196.753 40.7763 178.95 43.5535 162.566 50.3967C148.807 56.9587 139.087 69.7661 136.487 84.7598C135.131 92.7177 136.823 100.893 141.227 107.665L142.5 104.546C120.897 110.016 102.955 124.985 93.7327 145.23C89.6021 155.501 88.8784 166.822 91.6678 177.533C94.3903 187.373 100.703 195.841 109.366 201.273C118.599 207.343 130.068 208.979 140.636 205.731L137.706 204.073C144.03 222.74 160.202 236.373 179.704 239.475C201.703 243.831 224.529 240.79 244.612 230.829C256.622 225.193 267.53 217.467 276.824 208.014L275.083 208.735C287.301 209.488 299.553 207.98 311.221 204.289C322.013 201.076 332.253 196.246 341.591 189.964C350.236 184.282 357.479 176.721 362.777 167.847C367.588 159.489 369.703 149.855 368.833 140.255C368.132 129.624 362.893 119.805 354.445 113.289L354.445 117.657C366.324 108.615 372.878 94.2402 371.905 79.3641C370.765 67.9235 365.09 57.4119 356.143 50.1674C347.195 42.923 335.718 39.5465 324.263 40.7889L326.053 45.1031C334.119 37.3883 336.322 25.3842 331.519 15.3185C326.475 5.52968 315.403 0.419833 304.661 2.92272C298.742 4.09068 293.463 7.39869 289.837 12.212C289.178 13.3568 289.562 14.8176 290.699 15.4927C291.849 16.1274 293.295 15.7492 293.985 14.6335C299.631 8.0296 308.776 5.58886 316.972 8.4987C325.246 11.72 330.181 20.2307 328.855 28.994C328.371 33.8208 326.094 38.2921 322.472 41.528C321.771 42.2587 321.57 43.3333 321.957 44.2676C322.345 45.2018 323.249 45.8195 324.262 45.8421C337.545 44.3372 350.685 49.6614 359.156 59.9804C367.231 70.248 369.294 83.9994 364.584 96.1762C362.171 103.024 357.747 108.987 351.887 113.289C351.218 113.692 350.77 114.377 350.67 115.151C350.57 115.925 350.83 116.701 351.375 117.26C365.396 129.695 368.216 150.483 358.01 166.188C352.645 174.815 345.335 182.074 336.664 187.387C327.131 193.444 316.713 197.987 305.783 200.852C299.876 202.463 293.826 203.495 287.718 203.934C284.756 204.127 281.782 204.109 278.817 204.012C277.365 203.782 275.889 203.746 274.427 203.904C273.145 204.581 272.034 205.538 271.175 206.704C263.481 214.139 254.712 220.38 245.161 225.217C226.985 234.882 206.238 238.642 185.817 235.972C168.261 234.352 152.674 224.096 144.267 208.633C143.446 206.75 142.787 204.8 142.298 202.805C141.938 201.547 140.634 200.809 139.368 201.146C121.613 206.113 103.034 196.521 96.8411 179.191C93.5627 169.557 93.5733 159.112 96.8713 149.484C100.139 139.879 105.958 131.337 113.707 124.771C122.441 117.365 132.635 111.871 143.631 108.644C144.264 108.461 144.779 107.999 145.027 107.39C145.275 106.781 145.23 106.091 144.904 105.52C138.134 93.8524 139.128 79.2545 147.418 68.6087C156.879 56.4783 170.981 48.833 186.328 47.5125C195.645 46.2402 205.054 45.7738 214.45 46.1185C215.496 46.0969 216.339 45.2572 216.363 44.2138C217.669 31.3644 224.373 19.6696 234.811 12.0318C245.444 4.47754 258.837 1.8914 271.527 4.94161C278.903 6.60031 285.784 9.97008 291.611 14.7777C292.016 15.1369 292.631 15.1188 293.015 14.7364C293.398 14.354 293.416 13.7399 293.056 13.3356L293.057 13.3356Z" fill="rgb(231,196,178)" fill-rule="evenodd" />
		<g filter="url(#filter_0)">
			<rect id="Rectangle" width="274.000000" height="175.571777" x="80.000000" y="48.880859" rx="6.000000" fill="rgb(255,255,255)" />
		</g>
		<g filter="url(#filter_1)">
			<rect id="Rectangle" width="306.000000" height="175.571777" x="64.000000" y="40.900391" rx="6.000000" fill="rgb(255,255,255)" />
		</g>
		<g filter="url(#filter_2)">
			<rect id="Rectangle" width="338.000000" height="175.571777" x="48.000000" y="32.919922" rx="6.000000" fill="rgb(255,255,255)" />
		</g>
		<ellipse id="Oval" rx="20.000000" ry="19.951338" cx="92" cy="76.8126678" fill="rgb(247,204,71)" />
		<rect id="Rectangle" width="75.000000" height="13.965937" x="72.000000" y="110.729980" rx="2.000000" fill="rgb(245,222,209)" />
		<rect id="Rectangle" width="126.000000" height="5.985402" x="72.000000" y="132.676270" rx="2.992701" fill="rgb(245,222,209)" />
		<path id="Combined Shape" d="M3.82061 70.9998C2.59683 78.0439 1.97566 85.1804 1.9639 92.331L1.96471 92.331C1.9533 93.0717 0.751496 93.2887 0.634535 92.511C-0.472831 84.275 -0.128794 75.9074 1.65092 67.7911C4.63014 53.3693 10.8071 39.8071 19.7229 28.1123C24.1794 22.2207 29.2933 16.8612 34.9645 12.1384C38.0339 9.63124 41.2499 7.316 44.5941 5.20457L44.6719 5.18902C46.7449 4.77193 48.8149 4.34859 50.8824 3.91226C50.9217 3.62734 50.9583 3.34204 50.9924 3.05639C51.163 1.58449 53.3818 1.49839 53.3487 3.05639C53.3469 3.16643 53.3446 3.27645 53.3418 3.38645C53.8011 3.28689 54.2604 3.18655 54.7195 3.08537L53.5124 0.208194C50.4524 1.71726 47.4756 3.38525 44.5941 5.20457L39.9181 6.13942C40.1597 5.99642 40.3143 5.73355 40.3143 5.44277C40.3143 5.08702 40.0828 4.77305 39.744 4.66925C38.1657 4.27635 36.602 4.11264 35.0004 3.86707L34.5648 7.08977C33.8651 7.06401 33.2361 6.588 33.0413 5.87862C32.8067 5.02399 33.2863 4.13588 34.1274 3.86707C35.7729 3.38828 37.4525 3.03664 39.1515 2.81525L43.9852 1.87802C47.2794 1.23546 50.5804 0.62565 53.8882 0.0485781C54.6438 -0.14241 55.4261 0.243743 55.7371 0.961252C56.0467 1.68486 55.7718 2.52673 55.0957 2.92575C54.5035 3.1993 53.9147 3.47981 53.3296 3.76723C53.2516 5.843 52.9773 7.90721 52.5102 9.93209C52.2266 11.0995 51.8637 12.2461 51.4239 13.3638C51.1733 14.3536 50.6418 15.2494 49.8939 15.9427C49.6223 16.1007 49.293 16.1237 49.0021 16.005C48.7113 15.8862 48.4917 15.6391 48.4075 15.3359C48.3677 14.3517 48.5576 13.3718 48.9621 12.4741C49.2726 11.4573 49.5331 10.4241 49.7981 9.39089C50.1641 7.98087 50.4652 6.55513 50.7006 5.11816C45.0462 8.15401 39.7611 11.8485 34.9559 16.1288C24.207 25.6091 15.6884 37.368 10.0151 50.5567C7.19678 57.1174 5.11901 63.9745 3.82061 70.9998ZM37.8834 6.60386C38.4709 6.4838 39.0554 6.34775 39.636 6.19583L39.9181 6.13942C39.8642 6.17137 39.8059 6.19733 39.744 6.21629C39.1227 6.37422 38.5035 6.49725 37.8834 6.60386ZM37.8834 6.60386C36.7859 6.82811 35.6774 6.99658 34.5623 7.1085L34.5648 7.08977C34.7081 7.09504 34.8543 7.08144 35.0004 7.04711C35.9713 6.89327 36.9285 6.76802 37.8834 6.60386Z" fill="rgb(239,109,88)" fill-rule="evenodd" transform="matrix(-6.13817e-17,-1,-1,6.10834e-17,360.5,113.224)" />
		<rect id="Rectangle" width="289.000000" height="5.985402" x="72.000000" y="176.569336" rx="2.992701" fill="rgb(244.192,227.899,255)" />
		<rect id="Rectangle" width="113.000000" height="5.985402" x="72.000000" y="176.569336" rx="2.992701" fill="rgb(181,80,248)" />
	</g>
</svg>
