<svg viewBox="0 0 169 43" xmlns="http://www.w3.org/2000/svg" xmlns:xlink="http://www.w3.org/1999/xlink" width="169.000000" height="43.000000" fill="none">
	<rect id="logo" width="169.000000" height="43.000000" x="0.000000" y="0.000000" fill="rgb(255,255,255)" fill-opacity="0" />
	<path id="Personal" d="M68.026 28.66L64.294 28.66L64.294 10.96L70.354 10.96C71.706 10.96 72.862 11.224 73.822 11.752C74.79 12.272 75.526 12.98 76.03 13.876C76.542 14.764 76.798 15.768 76.798 16.888C76.798 18 76.538 19.02 76.018 19.948C75.506 20.868 74.77 21.608 73.81 22.168C72.85 22.72 71.698 22.996 70.354 22.996L68.026 22.996L68.026 28.66ZM68.026 21.844L66.346 20.116L69.958 20.116C70.582 20.116 71.126 19.992 71.59 19.744C72.054 19.488 72.414 19.12 72.67 18.64C72.926 18.152 73.054 17.568 73.054 16.888C73.054 16.2 72.926 15.632 72.67 15.184C72.422 14.728 72.066 14.392 71.602 14.176C71.146 13.952 70.598 13.84 69.958 13.84L66.346 13.84L68.026 12.064L68.026 21.844ZM84.8926 28.936C83.5166 28.936 82.3046 28.652 81.2566 28.084C80.2086 27.516 79.3886 26.736 78.7966 25.744C78.2126 24.744 77.9206 23.592 77.9206 22.288C77.9206 20.992 78.2126 19.848 78.7966 18.856C79.3886 17.856 80.2086 17.08 81.2566 16.528C82.3046 15.968 83.5166 15.688 84.8926 15.688C86.2686 15.688 87.4806 15.968 88.5286 16.528C89.5766 17.08 90.3926 17.856 90.9766 18.856C91.5686 19.848 91.8646 20.992 91.8646 22.288C91.8646 23.592 91.5686 24.744 90.9766 25.744C90.3926 26.736 89.5766 27.516 88.5286 28.084C87.4806 28.652 86.2686 28.936 84.8926 28.936ZM84.8926 25.984C85.5406 25.984 86.1046 25.832 86.5846 25.528C87.0646 25.224 87.4366 24.796 87.7006 24.244C87.9646 23.684 88.0966 23.032 88.0966 22.288C88.0966 21.544 87.9646 20.9 87.7006 20.356C87.4366 19.804 87.0646 19.38 86.5846 19.084C86.1046 18.788 85.5406 18.64 84.8926 18.64C84.2526 18.64 83.6886 18.788 83.2006 19.084C82.7206 19.38 82.3486 19.804 82.0846 20.356C81.8206 20.9 81.6886 21.544 81.6886 22.288C81.6886 23.032 81.8206 23.684 82.0846 24.244C82.3486 24.796 82.7206 25.224 83.2006 25.528C83.6886 25.832 84.2526 25.984 84.8926 25.984ZM94.1883 28.66L94.1883 15.916L97.9203 15.916L97.9203 20.308L97.1523 19.828C97.2403 19.228 97.4003 18.676 97.6323 18.172C97.8643 17.668 98.1643 17.232 98.5323 16.864C98.9003 16.488 99.3363 16.196 99.8403 15.988C100.352 15.78 100.936 15.676 101.592 15.676C102.104 15.676 102.504 15.716 102.792 15.796C103.088 15.868 103.272 15.924 103.344 15.964L102.732 19.3C102.66 19.26 102.5 19.196 102.252 19.108C102.004 19.02 101.684 18.976 101.292 18.976C100.652 18.976 100.116 19.084 99.6843 19.3C99.2523 19.516 98.9043 19.804 98.6403 20.164C98.3843 20.516 98.2003 20.908 98.0883 21.34C97.9763 21.772 97.9203 22.208 97.9203 22.648L97.9203 28.66L94.1883 28.66ZM111.491 28.924C111.003 28.924 110.499 28.88 109.979 28.792C109.467 28.712 108.987 28.548 108.539 28.3C108.099 28.044 107.743 27.672 107.471 27.184C107.199 26.696 107.063 26.052 107.063 25.252C107.063 25.076 107.063 24.896 107.063 24.712C107.063 24.528 107.063 24.344 107.063 24.16L107.063 18.796L104.123 18.796L104.123 15.916L104.951 15.916C105.431 15.916 105.811 15.896 106.091 15.856C106.379 15.816 106.591 15.716 106.727 15.556C106.871 15.388 106.963 15.128 107.003 14.776C107.043 14.424 107.063 13.94 107.063 13.324L107.063 11.716L110.795 11.716L110.795 15.916L114.503 15.916L114.503 18.796L110.795 18.796L110.795 23.38C110.795 23.524 110.795 23.664 110.795 23.8C110.795 23.936 110.795 24.068 110.795 24.196C110.795 24.748 110.859 25.196 110.987 25.54C111.123 25.884 111.455 26.056 111.983 26.056C112.247 26.056 112.495 26.032 112.727 25.984C112.967 25.936 113.147 25.888 113.267 25.84L113.267 28.636C113.099 28.708 112.863 28.772 112.559 28.828C112.255 28.892 111.899 28.924 111.491 28.924ZM118.307 28.66L118.307 18.796L115.655 18.796L115.655 15.916L118.307 15.916L118.307 15.04C118.307 14.192 118.419 13.468 118.643 12.868C118.875 12.26 119.187 11.756 119.579 11.356C119.971 10.948 120.411 10.628 120.899 10.396C121.395 10.156 121.903 9.988 122.423 9.892C122.951 9.788 123.463 9.736 123.959 9.736C124.487 9.736 124.879 9.768 125.135 9.832C125.399 9.888 125.575 9.936 125.663 9.976L125.663 12.868C125.567 12.836 125.395 12.8 125.147 12.76C124.907 12.72 124.647 12.7 124.367 12.7C123.903 12.7 123.519 12.76 123.215 12.88C122.911 13 122.671 13.176 122.495 13.408C122.319 13.632 122.195 13.9 122.123 14.212C122.051 14.516 122.015 14.848 122.015 15.208L122.015 15.916L125.435 15.916L125.435 18.796L122.015 18.796L122.015 28.66L118.307 28.66ZM133.221 28.936C131.845 28.936 130.633 28.652 129.585 28.084C128.537 27.516 127.717 26.736 127.125 25.744C126.541 24.744 126.249 23.592 126.249 22.288C126.249 20.992 126.541 19.848 127.125 18.856C127.717 17.856 128.537 17.08 129.585 16.528C130.633 15.968 131.845 15.688 133.221 15.688C134.597 15.688 135.809 15.968 136.857 16.528C137.905 17.08 138.721 17.856 139.305 18.856C139.897 19.848 140.193 20.992 140.193 22.288C140.193 23.592 139.897 24.744 139.305 25.744C138.721 26.736 137.905 27.516 136.857 28.084C135.809 28.652 134.597 28.936 133.221 28.936ZM133.221 25.984C133.869 25.984 134.433 25.832 134.913 25.528C135.393 25.224 135.765 24.796 136.029 24.244C136.293 23.684 136.425 23.032 136.425 22.288C136.425 21.544 136.293 20.9 136.029 20.356C135.765 19.804 135.393 19.38 134.913 19.084C134.433 18.788 133.869 18.64 133.221 18.64C132.581 18.64 132.017 18.788 131.529 19.084C131.049 19.38 130.677 19.804 130.413 20.356C130.149 20.9 130.017 21.544 130.017 22.288C130.017 23.032 130.149 23.684 130.413 24.244C130.677 24.796 131.049 25.224 131.529 25.528C132.017 25.832 132.581 25.984 133.221 25.984ZM146.368 9.904L146.368 28.66L142.696 28.66L142.696 9.904L146.368 9.904ZM149.193 28.66L149.193 15.916L152.877 15.916L152.877 28.66L149.193 28.66ZM151.029 13.84C150.453 13.84 149.949 13.688 149.517 13.384C149.093 13.08 148.881 12.652 148.881 12.1C148.881 11.54 149.093 11.108 149.517 10.804C149.949 10.5 150.453 10.348 151.029 10.348C151.613 10.348 152.117 10.5 152.541 10.804C152.973 11.108 153.189 11.54 153.189 12.1C153.189 12.66 152.973 13.092 152.541 13.396C152.117 13.692 151.613 13.84 151.029 13.84ZM162.002 28.936C160.626 28.936 159.414 28.652 158.366 28.084C157.318 27.516 156.498 26.736 155.906 25.744C155.322 24.744 155.03 23.592 155.03 22.288C155.03 20.992 155.322 19.848 155.906 18.856C156.498 17.856 157.318 17.08 158.366 16.528C159.414 15.968 160.626 15.688 162.002 15.688C163.378 15.688 164.59 15.968 165.638 16.528C166.686 17.08 167.502 17.856 168.086 18.856C168.678 19.848 168.974 20.992 168.974 22.288C168.974 23.592 168.678 24.744 168.086 25.744C167.502 26.736 166.686 27.516 165.638 28.084C164.59 28.652 163.378 28.936 162.002 28.936ZM162.002 25.984C162.65 25.984 163.214 25.832 163.694 25.528C164.174 25.224 164.546 24.796 164.81 24.244C165.074 23.684 165.206 23.032 165.206 22.288C165.206 21.544 165.074 20.9 164.81 20.356C164.546 19.804 164.174 19.38 163.694 19.084C163.214 18.788 162.65 18.64 162.002 18.64C161.362 18.64 160.798 18.788 160.31 19.084C159.83 19.38 159.458 19.804 159.194 20.356C158.93 20.9 158.798 21.544 158.798 22.288C158.798 23.032 158.93 23.684 159.194 24.244C159.458 24.796 159.83 25.224 160.31 25.528C160.798 25.832 161.362 25.984 162.002 25.984Z" fill="rgb(255,255,255)" fill-rule="nonzero" />
	<g id="logo img">
		<path id="Polygon" d="M23 0L45.8254 16.4247L37.1069 43.0003L8.89319 43.0003L0.174683 16.4247L23 0Z" fill="rgb(215.985,215.985,215.985)" fill-opacity="0" fill-rule="nonzero" />
		<path id="Polygon" d="M39.9333 18.3448L33.485 38.0003L12.5151 38.0003L6.06679 18.3448L23 6.15994L39.9333 18.3448ZM45.8254 16.4247L23 0L0.174683 16.4247L8.89319 43.0003L37.1069 43.0003L45.8254 16.4247Z" fill="rgb(239,109,88)" fill-rule="evenodd" />
		<path id="Polygon" d="M22.5 14L31.535 20.5643L28.084 31.1857L16.916 31.1857L13.465 20.5643L22.5 14Z" fill="rgb(239,109,88)" fill-rule="nonzero" />
	</g>
</svg>
