<svg viewBox="0 0 128.752 172.908" xmlns="http://www.w3.org/2000/svg" xmlns:xlink="http://www.w3.org/1999/xlink" width="128.751984" height="172.907715" fill="none" customFrame="#000000">
	<path id="Combined Shape" d="M47.3193 3.50416C31.8076 5.0633 16.3021 6.6946 0.77469 8.09689C-0.273867 8.19414 -0.242473 6.59422 0.77469 6.47501C5.18554 5.96052 9.59011 5.44603 14.0041 4.97233C29.519 3.31698 45.0339 1.65953 60.5487 0C60.984 0.00893128 61.3726 0.274545 61.5387 0.676616C61.7048 1.07869 61.6169 1.5409 61.3148 1.85403C57.4847 4.8688 53.6954 7.94004 49.8591 10.9485C37.0834 20.962 24.3073 30.9764 11.531 40.9918C10.4182 40.9182 9.30561 40.8411 8.19308 40.7605L9.08467 42.9095C9.88078 42.2854 10.6962 41.6462 11.531 40.9918C14.2311 41.1705 16.9318 41.3286 19.633 41.4664C28.9445 41.9363 38.2549 42.1527 47.5643 42.1158C51.6802 42.0994 55.7959 42.0335 59.9115 41.9181C60.5142 41.9355 61.0344 42.3453 61.192 42.9269C61.3496 43.5085 61.1074 44.1246 60.5958 44.4435L49.7241 51.8377C37.9518 59.7943 26.1691 67.7568 14.376 75.7252C13.2475 75.5506 12.12 75.3702 10.9934 75.1841L11.3325 77.7816C12.2157 77.1848 13.2302 76.4994 14.376 75.7252C16.754 76.0932 19.1363 76.4357 21.5229 76.7527C33.8505 78.3771 46.2542 79.3603 58.6839 79.6984C59.3441 79.7163 59.9145 80.1646 60.0874 80.8015C60.2603 81.4385 59.9949 82.1134 59.4343 82.4622C49.2815 88.78 39.132 95.098 28.9856 101.416C27.4958 101.239 26.0033 101.083 24.5085 100.946L25.262 103.735C26.5226 102.95 27.7638 102.177 28.9856 101.416C36.5556 102.314 44.0573 103.727 51.4382 105.645C52.0146 105.818 52.4357 106.313 52.5137 106.909C52.5917 107.505 52.3119 108.091 51.7993 108.406C45.9528 111.041 40.4216 114.32 35.3079 118.181C34.658 117.807 34.0082 117.433 33.3585 117.058L33.6661 119.452C34.2084 119.022 34.7557 118.598 35.3079 118.181C38.0312 119.749 40.7552 121.316 43.4799 122.881L45.9066 124.271C46.63 124.588 47.3104 124.996 47.9315 125.485C48.4366 126.298 48.7361 127.222 48.8043 128.176L49.3411 130.513C50.0695 133.735 50.7256 136.973 51.3095 140.226C52.061 144.44 52.7055 148.666 53.243 152.905C53.7417 151.696 54.2499 150.494 54.751 149.286C55.0067 148.676 55.281 148.069 55.5182 147.449C55.7141 146.728 56.1306 146.095 56.7044 145.644C57.022 145.458 57.4099 145.46 57.7257 145.649C58.0415 145.838 58.2388 146.186 58.245 146.566C58.2415 147.336 58.0278 148.089 57.6287 148.737L56.84 150.561C56.27 151.878 55.7061 153.198 55.1269 154.512L53.789 157.554C53.8873 158.463 53.9806 159.372 54.069 160.281C54.064 160.778 53.8299 161.244 53.4348 161.545C53.0397 161.846 52.5277 161.948 52.0473 161.822C51.9551 161.798 51.8632 161.773 51.7715 161.747C51.6672 161.919 51.5604 162.09 51.4512 162.259L51.4485 162.252C51.4843 162.191 51.5134 162.124 51.5344 162.053C51.5785 161.94 51.6281 161.829 51.6829 161.722C51.5152 161.674 51.3483 161.623 51.1824 161.57L51.4485 162.252C51.2609 162.57 50.8882 162.734 50.5268 162.63C50.0965 162.507 49.8384 162.049 49.9445 161.597C49.9787 161.453 50.0144 161.31 50.0515 161.167C47.0411 159.974 44.4073 157.963 42.4596 155.344C42.0177 154.575 42.2749 153.595 43.0372 153.141C43.8099 152.72 44.7771 152.973 45.2442 153.719C46.6711 155.566 48.5288 157.019 50.6396 157.958C50.6752 158.296 50.71 158.634 50.7442 158.972C50.8483 158.693 50.9581 158.417 51.0734 158.143C50.9277 158.084 50.7831 158.022 50.6396 157.958C49.5628 147.725 47.8556 137.568 45.5276 127.544C45.7147 127.652 45.9017 127.76 46.0887 127.869L45.3918 126.962C45.4373 127.156 45.4826 127.35 45.5276 127.544C40.9694 124.907 36.3917 122.303 31.817 119.69C31.4126 119.449 31.1416 119.035 31.0815 118.568C31.0215 118.101 31.1792 117.633 31.5094 117.297C36.1956 113.537 41.2546 110.273 46.605 107.554C47.9522 107.872 49.2955 108.207 50.6345 108.56L50.2735 105.796C49.0365 106.354 47.8133 106.94 46.605 107.554C39.3341 105.838 31.9507 104.63 24.5085 103.939C23.8442 103.918 23.2716 103.465 23.0977 102.824C22.9238 102.183 23.1893 101.504 23.7519 101.15C33.7753 94.9203 43.7865 88.6978 53.7857 82.4826C55.418 82.5568 57.0506 82.6187 58.6839 82.6661L57.9368 79.9023C56.4595 80.8205 55.0758 81.6806 53.7857 82.4826C51.8538 82.3947 49.9225 82.2895 47.9912 82.1704C35.3426 81.395 22.7416 79.9783 10.2368 77.9259C9.698 77.7587 9.30595 77.2933 9.23307 76.7342C9.16018 76.1751 9.4198 75.6248 9.89777 75.3253C13.53 72.8741 17.1623 70.4251 20.7946 67.9781C32.2929 60.2019 43.8057 52.4468 55.3331 44.7126C56.8595 44.6913 58.3857 44.6633 59.9115 44.6286L59.2239 42.1032C57.9282 42.9718 56.6312 43.8416 55.3331 44.7126C53.0383 44.7446 50.7427 44.7616 48.4464 44.7635C35.0035 44.776 21.5857 44.2804 8.19308 43.2765C7.23242 43.2075 6.35653 41.8648 7.30149 41.1307L18.8482 32.1241C31.5476 22.2555 44.2402 12.3932 56.926 2.53709C58.1329 2.41598 59.3405 2.29496 60.5487 2.17402L59.7796 0.319986C58.7373 1.12979 57.7861 1.86882 56.926 2.53709C53.7246 2.85831 50.5224 3.18067 47.3193 3.50416Z" fill="rgb(128,130,165)" fill-rule="evenodd" transform="matrix(-0.891007,0.45399,-0.45399,-0.891007,128.752,144.932)" />
</svg>
