<svg viewBox="0 0 148 146" xmlns="http://www.w3.org/2000/svg" xmlns:xlink="http://www.w3.org/1999/xlink" width="148.000000" height="146.000000" fill="none" customFrame="#000000">
	<rect id="icon" width="148.000000" height="146.000000" x="0.000000" y="0.000000" fill="rgb(255,255,255)" fill-opacity="0" />
	<g id="icon">
		<path id="Star" d="M74 110.73L56.2906 145.495L56.8052 106.502L24.9289 129.075L43.5496 94.7872L4.8088 99.9969L37.2698 78.269L0.539543 64.9219L39.4044 60.7315L13.0992 31.8854L49.4645 46.1924L39.6105 8.45563L65.1453 37.9825L74 0L82.8547 37.9825L108.39 8.45563L98.5355 46.1924L134.901 31.8854L108.596 60.7315L147.46 64.9219L110.73 78.269L143.191 99.9969L104.45 94.7872L123.071 129.075L91.1948 106.502L91.7094 145.495L74 110.73Z" fill="rgb(239,109,88)" fill-rule="nonzero" />
		<path id="Shape" d="M69 57.8589C66.2386 57.8589 64 60.092 64 62.8467L64 62.8587C63.9978 63.1888 64.0232 63.5184 64.076 63.8443L60 63.8443C58.8954 63.8443 58 64.7375 58 65.8394L58 67.8346C58 68.9364 58.8954 69.8297 60 69.8297L88 69.8297C89.1046 69.8297 90 68.9364 90 67.8346L90 65.8394C90 64.7375 89.1046 63.8443 88 63.8443L83.924 63.8443C84 63.3974 84 62.9984 84 62.8587L84 62.8467C84 60.092 81.7614 57.8589 79 57.8589C76.2386 57.8589 74 60.092 74 62.8467C74 60.092 71.7614 57.8589 69 57.8589ZM66.136 63.8443L72 63.8443L72 62.8467C72 61.7775 71.4282 60.7896 70.5 60.255C69.5718 59.7204 68.4282 59.7204 67.5 60.255C66.5718 60.7896 66 61.7775 66 62.8467C66 63.0163 66.004 63.3934 66.09 63.7046C66.102 63.7522 66.1174 63.7989 66.136 63.8443ZM81.864 63.8443L76 63.8443L76 62.8467C76 61.1939 77.3431 59.854 79 59.854C80.6569 59.854 82 61.1939 82 62.8467C82 63.0163 81.996 63.3934 81.91 63.7046C81.8978 63.7521 81.8824 63.7988 81.864 63.8443ZM60 86.7882C60 88.441 61.3431 89.7809 63 89.7809L72 89.7809L72 71.8247L60 71.8247L60 86.7882ZM88 71.8247L88 86.7882C88 88.441 86.6569 89.7809 85 89.7809L76 89.7809L76 71.8247L88 71.8247Z" fill="rgb(255,255,255)" fill-rule="evenodd" />
	</g>
</svg>
