<svg viewBox="0 0 32 32" xmlns="http://www.w3.org/2000/svg" xmlns:xlink="http://www.w3.org/1999/xlink" width="32.000000" height="32.000000" fill="none" customFrame="#000000">
	<path id="Combined Shape" d="M16 0C16.3784 0 16.7244 0.213767 16.894 0.552318L17.618 2.00133L27 2.00133C28.6569 2.00133 30 3.34541 30 5.00342L30 20.0139L2 20.0139L2 5.00342C2 3.34541 3.34315 2.00133 5 2.00133L14.38 2.00133L15.106 0.552318C15.2756 0.213767 15.6216 0 16 0ZM0 23.016C0 22.4633 0.447715 22.0153 1 22.0153L31 22.0153C31.5523 22.0153 32 22.4633 32 23.016C32 23.5687 31.5523 24.0167 31 24.0167L25.28 24.0167L26.97 30.7794C27.0893 31.3098 26.7636 31.8384 26.2365 31.97C25.7094 32.1016 25.1737 31.788 25.03 31.2637L24.22 28.0195L7.78 28.0195L6.97 31.2637C6.82633 31.788 6.29065 32.1016 5.76354 31.97C5.23643 31.8384 4.91073 31.3098 5.03 30.7794L6.72 24.0167L1 24.0167C0.447715 24.0167 0 23.5687 0 23.016ZM8.28 26.0181L8.78 24.0167L23.22 24.0167L23.72 26.0181L8.28 26.0181Z" fill="rgb(255,255,255)" fill-rule="evenodd" />
</svg>
