<svg viewBox="0 0 32 26" xmlns="http://www.w3.org/2000/svg" xmlns:xlink="http://www.w3.org/1999/xlink" width="32.000000" height="26.000000" fill="none" customFrame="#000000">
	<path id="Combined Shape" d="M10 3C10 1.34315 11.3431 0 13 0L19 0C20.6569 0 22 1.34315 22 3L22 4L29 4C30.6569 4 32 5.34315 32 7L32 9.768L16.772 13.828C16.2661 13.9627 15.7339 13.9627 15.228 13.828L0 9.768L0 7C0 5.34315 1.34315 4 3 4L10 4L10 3ZM13 2L19 2C19.5523 2 20 2.44772 20 3L20 4L12 4L12 3C12 2.44772 12.4477 2 13 2ZM3 26C1.34315 26 0 24.6569 0 23L0 11.7L15.742 15.894C15.911 15.9391 16.089 15.9391 16.258 15.894L32 11.7L32 23C32 24.6569 30.6569 26 29 26L3 26Z" fill="rgb(255,255,255)" fill-rule="evenodd" />
</svg>
