<svg viewBox="0 0 184 187.692" xmlns="http://www.w3.org/2000/svg" xmlns:xlink="http://www.w3.org/1999/xlink" width="184.000000" height="187.691895" fill="none" customFrame="#000000">
	<rect id="Frame 1" width="184.000000" height="187.000000" x="0.000000" y="0.292480" fill="rgb(255,255,255)" fill-opacity="0" />
	<g id="Group 1">
		<path id="Star" d="M91.7854 142.397L69.6676 187.101L70.3027 136.957L30.4832 165.979L53.7397 121.889L5.34074 128.58L45.8908 100.645L0 83.4737L48.5541 78.0928L15.6845 40.9918L61.1195 59.3978L48.8011 10.8668L80.7084 48.8432L91.7632 7.7874e-15L102.833 48.8468L134.729 10.8809L122.425 59.4079L167.855 41.0168L134.997 78.107L183.553 83.5039L137.667 100.66L178.226 128.609L129.825 121.901L153.095 165.999L113.266 136.964L113.917 187.108L91.7854 142.397Z" fill="rgb(181,80,248)" fill-rule="nonzero" transform="matrix(0.972915,0.231164,-0.218888,0.97575,22.9557,-21.2124)" />
		<path id="Combined Shape" d="M32.3345 0C31.8939 0 31.4713 0.178067 31.1601 0.494908L24.8464 6.90641L13.8548 9.69607C12.1542 10.1286 10.8032 11.4379 10.2982 13.1427L0 48L34.3219 37.5421C36.0028 37.0297 37.2937 35.6561 37.7192 33.927L40.4696 22.765L46.7799 16.3569C47.0919 16.0408 47.2673 15.6117 47.2673 15.1642C47.2673 14.7167 47.0919 14.2876 46.7799 13.9715L33.509 0.494908C33.1978 0.178067 32.7752 0 32.3345 0ZM25.1882 10.2924L14.6611 12.9642C14.0926 13.1083 13.6411 13.5463 13.4733 14.1164L4.94678 42.9732L4.95035 42.9722L5.03635 42.6833L19.0637 25.2715C19.0637 23.4108 20.5491 21.9023 22.3814 21.9023C24.2137 21.9023 25.6991 23.4108 25.6991 25.2715C25.6991 27.1322 24.2137 28.6407 22.3814 28.6407L5.23566 42.8852L33.3697 34.3145C33.9278 34.1428 34.356 33.6861 34.4978 33.1117L37.132 22.418L25.1882 10.2891L25.1882 10.2924Z" fill="rgb(255,255,255)" fill-rule="evenodd" transform="matrix(-1,0,0,-1,116.321,116.292)" />
	</g>
</svg>
