<svg viewBox="0 0 112 112" xmlns="http://www.w3.org/2000/svg" xmlns:xlink="http://www.w3.org/1999/xlink" width="112.000000" height="112.000000" fill="none" customFrame="#000000">
	<g id="icon">
		<circle id="Oval" cx="56" cy="56" r="56" fill="rgb(239,108,87)" />
		<path id="Shape" d="M44 32.5C44 31.6716 43.3284 31 42.5 31C41.6716 31 41 31.6716 41 32.5L41 34L38 34C34.6863 34 32 36.6863 32 40L32 73C32 76.3137 34.6863 79 38 79L74 79C77.3137 79 80 76.3137 80 73L80 40C80 36.6863 77.3137 34 74 34L71 34L71 32.5C71 31.6716 70.3284 31 69.5 31C68.6716 31 68 31.6716 68 32.5L68 34L44 34L44 32.5ZM72.362 40L39.635 40C38.735 40 38 40.672 38 41.5L38 44.5C38 45.328 38.732 46 39.635 46L72.365 46C73.265 46 74 45.328 74 44.5L74 41.5C74 40.672 73.268 40 72.362 40ZM64.562 55.438C65.1485 56.0245 65.1485 56.9755 64.562 57.562L55.562 66.562C55.2806 66.8441 54.8985 67.0027 54.5 67.0027C54.1015 67.0027 53.7194 66.8441 53.438 66.562L48.938 62.062C48.5586 61.6826 48.4104 61.1296 48.5493 60.6113C48.6882 60.093 49.093 59.6882 49.6113 59.5493C50.1296 59.4104 50.6826 59.5586 51.062 59.938L54.5 63.379L62.438 55.438C63.0245 54.8515 63.9755 54.8515 64.562 55.438Z" fill="rgb(255,255,255)" fill-rule="evenodd" />
	</g>
</svg>
