<svg viewBox="0 0 112 112" xmlns="http://www.w3.org/2000/svg" xmlns:xlink="http://www.w3.org/1999/xlink" width="112.000000" height="112.000000" fill="none" customFrame="#000000">
	<g id="icon">
		<circle id="Oval" cx="56" cy="56" r="56" fill="rgb(239,108,87)" />
		<path id="Combined Shape" d="M47 39.5C47 37.0147 49.0147 35 51.5 35L60.5 35C62.9853 35 65 37.0147 65 39.5L65 41L75.5 41C77.9853 41 80 43.0147 80 45.5L80 49.652L57.158 55.742C56.3992 55.9441 55.6008 55.9441 54.842 55.742L32 49.652L32 45.5C32 43.0147 34.0147 41 36.5 41L47 41L47 39.5ZM51.5 38L60.5 38C61.3284 38 62 38.6716 62 39.5L62 41L50 41L50 39.5C50 38.6716 50.6716 38 51.5 38ZM36.5 74C34.0147 74 32 71.9853 32 69.5L32 52.55L55.613 58.841C55.8666 58.9087 56.1334 58.9087 56.387 58.841L80 52.55L80 69.5C80 71.9853 77.9853 74 75.5 74L36.5 74Z" fill="rgb(255,255,255)" fill-rule="evenodd" />
	</g>
</svg>
